<svg width="137" height="139" viewBox="0 0 137 139" fill="none" xmlns="http://www.w3.org/2000/svg">
<g clip-path="url(#clip0_2_77)">
<path d="M109.328 95.0868L97.6799 70.5977C97.0263 69.1946 97.1341 67.652 97.922 66.4615L112.095 42.7166C113.97 39.4245 111.447 35.6341 107.712 36.1888L80.125 39.859C78.6743 39.9966 77.1691 39.5733 76.162 38.5202L57.925 18.4371C55.5115 15.7688 50.8611 17.0934 50.0838 20.5976L44.6525 47.442C44.4086 48.9142 43.4122 50.1744 42.0888 50.7332L16.719 62.1195C13.302 63.7264 12.9786 68.3534 16.2437 70.0416L40.4508 82.9126C41.8113 83.616 42.5374 84.8793 42.7742 86.4222L45.2669 113.28C45.5867 116.996 50.0939 118.616 52.8485 115.957L73.1721 96.9897C74.2323 95.9398 75.8279 95.5219 77.197 95.8747L104.21 101.318C107.91 102.166 110.899 98.3849 109.328 95.0868Z" fill="url(#paint0_linear_2_77)"/>
<path opacity="0.05" d="M104.21 101.319L77.1974 95.8751C75.7558 95.6625 74.233 95.9404 73.1728 96.9903L52.7765 116.097C51.082 117.707 48.6703 117.703 47.0466 116.508C54.1493 108.107 48.7341 90.5693 54.388 84.9696C57.713 81.5395 60.8299 78.1793 62.2239 74.8161C64.2786 69.8417 64.6833 64.724 71.0176 59.4759C75.5937 55.6273 93.2724 54.1144 98.3289 50.3363C102.053 47.4681 103.175 43.9644 109.981 39.1376C110.543 38.7179 111.241 38.3685 111.866 38.1594C112.729 39.493 112.893 41.1758 112.023 42.857L97.9225 66.4619C97.1343 67.6527 97.1628 69.2653 97.6804 70.5981L109.329 95.0873C110.9 98.3853 107.91 102.167 104.21 101.319Z" fill="#351656"/>
</g>
<defs>
<linearGradient id="paint0_linear_2_77" x1="90.4729" y1="26.2861" x2="44.5126" y2="115.178" gradientUnits="userSpaceOnUse">
<stop stop-color="#FBB40D"/>
<stop offset="1" stop-color="#FB710D"/>
</linearGradient>
<clipPath id="clip0_2_77">
<rect width="103.85" height="100.141" fill="white" transform="translate(0 92.2495) rotate(-62.6594)"/>
</clipPath>
</defs>
</svg>
